<svg width="95" height="94" viewBox="0 0 95 94" fill="none" xmlns="http://www.w3.org/2000/svg">
<path d="M47.5 1.5C72.9231 1.5 93.4998 21.8435 93.5 46.8984C93.5 71.9535 72.9232 92.2979 47.5 92.2979C22.0768 92.2979 1.5 71.9535 1.5 46.8984C1.50016 21.8435 22.0769 1.5 47.5 1.5Z" stroke="black" stroke-width="3"/>
<path d="M15.6257 45.7691C15.7867 45.9355 15.9879 46.1699 16.2253 46.4907C17.0178 47.5617 18.0124 49.2561 19.2048 51.395C20.3775 53.4986 21.7537 56.0539 23.2448 58.7027C26.241 64.0247 29.8456 69.9904 33.8728 74.6333C35.5467 76.5632 37.3299 78.305 39.2067 79.6782C25.5192 75.9951 15.4304 63.4168 15.4304 48.4527C15.4304 47.3254 15.488 46.5171 15.5857 45.9702C15.5989 45.8963 15.6121 45.8293 15.6257 45.7691ZM79.3737 45.7681C79.3874 45.8286 79.4015 45.8959 79.4148 45.9702C79.5124 46.5171 79.57 47.3255 79.57 48.4527C79.57 63.417 69.4805 75.9953 55.7927 79.6782C57.6697 78.3049 59.4536 76.5633 61.1276 74.6333C65.1548 69.9904 68.7594 64.0247 71.7556 58.7027C73.2467 56.0539 74.6229 53.4986 75.7956 51.395C76.9881 49.2561 77.9826 47.5616 78.7751 46.4907C79.0127 46.1698 79.2127 45.9346 79.3737 45.7681Z" stroke="black" stroke-width="2"/>
<path d="M48.1013 22.8481V66.1392" stroke="black" stroke-width="2" stroke-linecap="round"/>
</svg>
