<svg width="989" height="956" viewBox="0 0 989 956" fill="none" xmlns="http://www.w3.org/2000/svg">
<path d="M481 76.0327C706.919 76.0327 890 255.825 890 477.533C890 699.241 706.919 879.033 481 879.033C255.081 879.033 72 699.241 72 477.533C72 255.825 255.081 76.0327 481 76.0327Z" stroke="black" stroke-opacity="0.48" stroke-width="4"/>
<path d="M486 1.78271C753.473 1.78271 970.25 214.812 970.25 477.533C970.25 740.253 753.473 953.283 486 953.283C218.527 953.283 1.75 740.253 1.75 477.533C1.75 214.812 218.527 1.78271 486 1.78271Z" stroke="black" stroke-opacity="0.29" stroke-width="3.5"/>
<path d="M486 171.533C658.079 171.533 797.5 308.575 797.5 477.533C797.5 646.49 658.079 783.533 486 783.533C313.921 783.533 174.5 646.49 174.5 477.533C174.5 308.575 313.921 171.533 486 171.533Z" stroke="black" stroke-opacity="0.48" stroke-width="5"/>
<ellipse cx="601.5" cy="16.0327" rx="17.5" ry="16" fill="#3847C5"/>
<ellipse cx="179.5" cy="424.033" rx="17.5" ry="16" fill="#3847C5"/>
<ellipse cx="741.5" cy="655.033" rx="17.5" ry="16" fill="#3847C5"/>
<ellipse cx="480.5" cy="881.033" rx="17.5" ry="16" fill="#3847C5"/>
<ellipse cx="971.5" cy="456.033" rx="17.5" ry="16" fill="#3847C5"/>
<ellipse cx="263.5" cy="58.0327" rx="17.5" ry="16" fill="#3847C5"/>
<ellipse cx="382.5" cy="90.0327" rx="17.5" ry="16" fill="#3847C5"/>
<ellipse cx="104.5" cy="639.033" rx="17.5" ry="16" fill="#3847C5"/>
</svg>
